<svg viewBox="0 0 42 42" fill="none" xmlns="http://www.w3.org/2000/svg">
  <path d="M38.0009 6.43657C38.1285 6.69963 38.4709 8.55877 39.4349 8.55877C40.3988 8.55877 40.594 8.45695 40.7292 8.35302C42.3029 7.14397 41.9906 8.17474 41.9444 8.35302C41.8792 8.60445 41.2195 9.33108 39.8624 9.99432C38.5053 10.6575 36.7013 10.6316 36.7013 10.6316C36.2095 10.7307 35.9013 11.0095 35.6921 11.4127C35.5532 11.8017 35.4988 12.2459 35.7254 12.6334C36.4627 14.0732 37.0036 15.6248 37.3337 17.2189C39.3433 26.922 32.7606 36.48 22.7982 38.1996C28.3256 28.4933 26.0803 16.2385 17.6971 8.97553C16.9915 8.39575 16.8608 7.41128 17.3638 6.66005L18.5935 4.82371C20.2991 2.45823 22.7531 0.880449 25.6333 0.299806C31.1829 -0.818996 36.1085 1.18633 38.0009 6.43657Z" fill="white"/>
  <path d="M15.0989 11.3543C15.5761 10.5223 16.6396 10.4305 17.3298 11.1498C23.6271 18.0353 24.3691 29.7196 17.6331 36.6573C16.2541 38.1003 14.6461 39.2216 12.8488 39.9519C8.90276 41.5445 4.63079 41.302 0.873163 39.3617C0.0880279 38.9681 -0.259662 37.8119 0.21752 36.9799L15.0989 11.3543Z" fill="white"/>
  </svg>
